Coordinates
version=1
nRows=11
nColumns=40
inDegrees=yes

Units are S.I. units (second, meters, Newtons, ...)
If the header above contains a line with 'inDegrees', this indicates whether rotational values are in degrees (yes) or radians (no).

endheader
time	pelvis_tilt	pelvis_list	pelvis_rotation	pelvis_tx	pelvis_ty	pelvis_tz	hip_flexion_r	hip_adduction_r	hip_rotation_r	knee_angle_r	knee_angle_r_beta	ankle_angle_r	subtalar_angle_r	mtp_angle_r	hip_flexion_l	hip_adduction_l	hip_rotation_l	knee_angle_l	knee_angle_l_beta	ankle_angle_l	subtalar_angle_l	mtp_angle_l	lumbar_extension	lumbar_bending	lumbar_rotation	arm_flex_r	arm_add_r	arm_rot_r	elbow_flex_r	pro_sup_r	wrist_flex_r	wrist_dev_r	arm_flex_l	arm_add_l	arm_rot_l	elbow_flex_l	pro_sup_l	wrist_flex_l	wrist_dev_l
      0.89000000	     -0.01972149	      9.51302588	     -3.41089946	      0.61496685	      0.93823979	      0.17257303	     25.29729491	    -19.36497555	     -7.01549781	     67.42304089	      1.17675406	     -3.70206181	    -10.01363507	      0.00000000	     -0.16319804	     10.89465801	    -22.46273983	      6.69954133	      0.11692905	      2.31775021	      8.41885604	      0.00000000	      0.58516401	    -12.05914131	      4.61415554	     44.19451184	    -15.70915808	     44.19451184	     75.10615702	     44.99531233	      0.00000000	      0.00000000	     44.19451184	    -15.70915808	     44.19451184	     75.10615702	     44.99531233	      0.00000000	      0.00000000
      0.89500000	     -0.05771871	      9.42477832	     -3.22507506	      0.62104541	      0.93861582	      0.17229744	     25.84728455	    -18.95847479	     -7.06414946	     66.52105082	      1.16101136	     -3.11039536	     -9.67190107	      0.00000000	     -0.73025218	     10.85492706	    -22.33018341	      6.38655851	      0.11146647	      2.39644222	      8.89435715	      0.00000000	      0.54902805	    -11.98313147	      4.51871541	     44.19552073	    -15.70769020	     44.19552073	     75.10572747	     44.99536494	      0.00000000	      0.00000000	     44.19552073	    -15.70769020	     44.19552073	     75.10572747	     44.99536494	      0.00000000	      0.00000000
      0.90000000	      0.00924793	      9.18703324	     -2.93712943	      0.62718691	      0.93935480	      0.17180911	     26.08054262	    -18.45239353	     -7.31529499	     65.39356315	      1.14133299	     -2.49317324	     -9.17998234	      0.00000000	     -1.41720119	     10.65320176	    -22.08427195	      6.10593202	      0.10656862	      2.43295128	      9.33326003	      0.00000000	      0.33721517	    -11.69457443	      4.33328623	     44.19690994	    -15.70567084	     44.19690994	     75.10513786	     44.99543657	      0.00000000	      0.00000000	     44.19690994	    -15.70567084	     44.19690994	     75.10513786	     44.99543657	      0.00000000	      0.00000000
      0.90500000	      0.20591742	      8.53873851	     -2.29077202	      0.63346745	      0.94077362	      0.17029241	     25.73607825	    -17.73035332	     -8.21727867	     63.82058251	      1.11387930	     -2.23867747	     -8.94601946	      0.00000000	     -2.26932829	     10.04033710	    -21.42439367	      5.87887865	      0.10260579	      2.46647028	      9.57681756	      0.00000000	     -0.17180235	    -10.84666626	      3.61372007	     44.20082028	    -15.69999999	     44.20082028	     75.10349149	     44.99563249	      0.00000000	      0.00000000	     44.20082028	    -15.69999999	     44.20082028	     75.10349149	     44.99563249	      0.00000000	      0.00000000
      0.91000000	      0.22516400	      8.37791599	     -2.00910402	      0.63954315	      0.94123804	      0.16980997	     26.01372063	    -17.29848397	     -8.39042834	     62.57721015	      1.09217835	     -1.77349249	     -8.60275554	      0.00000000	     -2.86270109	      9.90311000	    -21.19448141	      5.62889643	      0.09824278	      2.47900645	      9.92996478	      0.00000000	     -0.33169328	    -10.65810917	      3.33728447	     44.20280019	    -15.69713556	     44.20280019	     75.10266469	     44.99572883	      0.00000000	      0.00000000	     44.20280019	    -15.69713556	     44.20280019	     75.10266469	     44.99572883	      0.00000000	      0.00000000
      0.91500000	      0.33513862	      7.90876729	     -1.44262183	      0.64577440	      0.94213499	      0.16859948	     25.87429986	    -16.72154358	     -9.10018804	     61.01442273	      1.06490257	     -1.57227878	     -8.39364079	      0.00000000	     -3.58794558	      9.44092253	    -20.59013726	      5.40645497	      0.09436044	      2.53668206	     10.16282578	      0.00000000	     -0.65344180	    -10.08117646	      2.75740091	     44.20685573	    -15.69128368	     44.20685573	     75.10098640	     44.99591989	      0.00000000	      0.00000000	     44.20685573	    -15.69128368	     44.20685573	     75.10098640	     44.99591989	      0.00000000	      0.00000000
      0.92000000	      0.14847976	      8.06591392	     -1.19695488	      0.65178425	      0.94179086	      0.16826356	     26.54374574	    -16.65425217	     -9.11598954	     59.89976888	      1.04544819	     -1.35035732	     -8.29982489	      0.00000000	     -3.85638547	      9.60785866	    -20.46032337	      5.32621841	      0.09296005	      2.59495528	     10.39443850	      0.00000000	     -0.51211179	    -10.21821257	      2.81944977	     44.20715455	    -15.69085324	     44.20715455	     75.10086344	     44.99593370	      0.00000000	      0.00000000	     44.20715455	    -15.69085324	     44.20715455	     75.10086344	     44.99593370	      0.00000000	      0.00000000
      0.92500000	     -0.02288248	      8.22989514	     -0.94597915	      0.65780663	      0.94140976	      0.16790281	     27.14319391	    -16.59791779	     -9.11362270	     58.69064333	      1.02434497	     -1.11124345	     -8.16740528	      0.00000000	     -4.15053026	      9.78630424	    -20.31990855	      5.23604798	      0.09138628	      2.68568320	     10.62824069	      0.00000000	     -0.34618728	    -10.33392240	      2.88373742	     44.20737371	    -15.69053763	     44.20737371	     75.10077334	     44.99594379	      0.00000000	      0.00000000	     44.20737371	    -15.69053763	     44.20737371	     75.10077334	     44.99594379	      0.00000000	      0.00000000
      0.93000000	      0.40832560	      7.26923119	     -0.23977012	      0.66415635	      0.94325347	      0.16634086	     26.16077221	    -15.53900816	    -10.18377711	     56.44665180	      0.98517993	     -0.81159653	     -7.67740142	      0.00000000	     -5.30803889	      8.78826183	    -19.47161388	      4.85026655	      0.08465312	      2.66446242	     10.91676673	      0.00000000	     -1.17071092	     -9.11166913	      1.96300255	     44.21111719	    -15.68515404	     44.21111719	     75.09924182	     44.99611310	      0.00000000	      0.00000000	     44.21111719	    -15.68515404	     44.21111719	     75.09924182	     44.99611310	      0.00000000	      0.00000000
      0.93500000	      0.18190253	      7.48247403	      0.01367428	      0.67016043	      0.94260140	      0.16599388	     26.80352219	    -15.56827447	    -10.18669894	     55.19445753	      0.96332501	     -0.64343074	     -7.61479852	      0.00000000	     -5.52566700	      9.00548528	    -19.30569763	      4.79051423	      0.08361025	      2.76231060	     11.11368045	      0.00000000	     -0.97411770	     -9.30194341	      2.02858454	     44.21141292	    -15.68472955	     44.21141292	     75.09912159	     44.99612618	      0.00000000	      0.00000000	     44.21141292	    -15.68472955	     44.21141292	     75.09912159	     44.99612618	      0.00000000	      0.00000000
      0.94000000	      0.27224362	      7.26141362	      0.26468177	      0.67629553	      0.94291402	      0.16569212	     26.74478579	    -15.05658612	    -10.33699141	     53.43183528	      0.93256145	     -0.29960941	     -7.26477914	      0.00000000	     -6.19077908	      8.76837977	    -19.04078577	      4.53003861	      0.07906409	      2.78745320	     11.38546812	      0.00000000	     -1.19068656	     -9.12772103	      1.70505698	     44.21299130	    -15.68246527	     44.21299130	     75.09848132	     44.99619543	      0.00000000	      0.00000000	     44.21299130	    -15.68246527	     44.21299130	     75.09848132	     44.99619543	      0.00000000	      0.00000000
